<?xml version="1.0" encoding="UTF-8" standalone="no"?>
<svg
   xmlns:dc="http://purl.org/dc/elements/1.1/"
   xmlns:cc="http://creativecommons.org/ns#"
   xmlns:rdf="http://www.w3.org/1999/02/22-rdf-syntax-ns#"
   xmlns:svg="http://www.w3.org/2000/svg"
   xmlns="http://www.w3.org/2000/svg"
   xmlns:sodipodi="http://sodipodi.sourceforge.net/DTD/sodipodi-0.dtd"
   xmlns:inkscape="http://www.inkscape.org/namespaces/inkscape"
   version="1.1"
   x="0px"
   y="0px"
   viewBox="0 0 72.567 80.267"
   width="2.56cm"
   height="2.83cm"
   xml:space="preserve"
   id="svg267"
   sodipodi:docname="WeMos-D1-mini-breadboard.svg"
   inkscape:version="0.92.3 (2405546, 2018-03-11)"><metadata
   id="metadata273"><rdf:RDF><cc:Work
       rdf:about=""><dc:format>image/svg+xml</dc:format><dc:type
         rdf:resource="http://purl.org/dc/dcmitype/StillImage" /><dc:title></dc:title></cc:Work></rdf:RDF></metadata><defs
   id="defs271">
	


		

		

		
	

			

			

			

			

			
		
				
				
				
				
			</defs><sodipodi:namedview
   pagecolor="#ffffff"
   bordercolor="#666666"
   borderopacity="1"
   objecttolerance="10"
   gridtolerance="10"
   guidetolerance="10"
   inkscape:pageopacity="0"
   inkscape:pageshadow="2"
   inkscape:window-width="1358"
   inkscape:window-height="922"
   id="namedview269"
   showgrid="false"
   inkscape:zoom="5.1461686"
   inkscape:cx="48.377952"
   inkscape:cy="53.480314"
   inkscape:window-x="199"
   inkscape:window-y="71"
   inkscape:window-maximized="0"
   inkscape:current-layer="svg267" />
<g
   class="PCB"
   id="g4">
			<path
   d="m 0,57.8 c 0,0.2 0.1,0.4 0.3,0.5 l 5,2.3 c 0.2,0.1 0.3,0.3 0.3,0.5 v 17.2 c 0,1.1 0.9,2 2,2 h 63 c 1.1,0 2,-0.9 2,-2 V 1 c 0,-0.6 -0.4,-1 -1,-1 H 1 C 0.4,0 0,0.4 0,1 Z M 68.7,2.6 c 0.7,0 1.3,0.6 1.3,1.3 0,0.7 -0.6,1.3 -1.3,1.3 -0.7,0 -1.3,-0.6 -1.3,-1.3 0,-0.7 0.6,-1.3 1.3,-1.3 z m 0,7.2 c 0.7,0 1.3,0.6 1.3,1.3 0,0.7 -0.6,1.3 -1.3,1.3 -0.7,0 -1.3,-0.6 -1.3,-1.3 0,-0.7 0.6,-1.3 1.3,-1.3 z m 0,7.2 c 0.7,0 1.3,0.6 1.3,1.3 0,0.7 -0.6,1.3 -1.3,1.3 -0.7,0 -1.3,-0.6 -1.3,-1.3 0,-0.7 0.6,-1.3 1.3,-1.3 z m 0,7.2 c 0.7,0 1.3,0.6 1.3,1.3 0,0.7 -0.6,1.3 -1.3,1.3 -0.7,0 -1.3,-0.6 -1.3,-1.3 0,-0.7 0.6,-1.3 1.3,-1.3 z m 0,7.2 c 0.7,0 1.3,0.6 1.3,1.3 0,0.7 -0.6,1.3 -1.3,1.3 -0.7,0 -1.3,-0.6 -1.3,-1.3 0,-0.7 0.6,-1.3 1.3,-1.3 z m 0,7.2 c 0.7,0 1.3,0.6 1.3,1.3 0,0.7 -0.6,1.3 -1.3,1.3 -0.7,0 -1.3,-0.6 -1.3,-1.3 0,-0.7 0.6,-1.3 1.3,-1.3 z m 0,7.2 c 0.7,0 1.3,0.6 1.3,1.3 0,0.7 -0.6,1.3 -1.3,1.3 -0.7,0 -1.3,-0.6 -1.3,-1.3 0,-0.7 0.6,-1.3 1.3,-1.3 z m 0,7.2 c 0.7,0 1.3,0.6 1.3,1.3 0,0.7 -0.6,1.3 -1.3,1.3 C 68,55.6 67.4,55 67.4,54.3 67.4,53.6 68,53 68.7,53 Z M 3.9,2.6 C 4.6,2.6 5.2,3.2 5.2,3.9 5.2,4.6 4.6,5.2 3.9,5.2 3.2,5.2 2.6,4.6 2.6,3.9 2.6,3.2 3.2,2.6 3.9,2.6 Z m 0,7.2 c 0.7,0 1.3,0.6 1.3,1.3 0,0.7 -0.6,1.3 -1.3,1.3 -0.7,0 -1.3,-0.6 -1.3,-1.3 0,-0.7 0.6,-1.3 1.3,-1.3 z m 0,7.2 c 0.7,0 1.3,0.6 1.3,1.3 0,0.7 -0.6,1.3 -1.3,1.3 C 3.2,19.6 2.6,19 2.6,18.3 2.6,17.6 3.2,17 3.9,17 Z m 0,7.2 c 0.7,0 1.3,0.6 1.3,1.3 0,0.7 -0.6,1.3 -1.3,1.3 -0.7,0 -1.3,-0.6 -1.3,-1.3 0,-0.7 0.6,-1.3 1.3,-1.3 z m 0,7.2 c 0.7,0 1.3,0.6 1.3,1.3 C 5.2,33.4 4.6,34 3.9,34 3.2,34 2.6,33.4 2.6,32.7 2.6,32 3.2,31.4 3.9,31.4 Z m 0,7.2 c 0.7,0 1.3,0.6 1.3,1.3 0,0.7 -0.6,1.3 -1.3,1.3 -0.7,0 -1.3,-0.6 -1.3,-1.3 0,-0.7 0.6,-1.3 1.3,-1.3 z m 0,7.2 c 0.7,0 1.3,0.6 1.3,1.3 0,0.7 -0.6,1.3 -1.3,1.3 -0.7,0 -1.3,-0.6 -1.3,-1.3 0,-0.7 0.6,-1.3 1.3,-1.3 z m 0,7.2 c 0.7,0 1.3,0.6 1.3,1.3 0,0.7 -0.6,1.3 -1.3,1.3 C 3.2,55.6 2.6,55 2.6,54.3 2.6,53.6 3.2,53 3.9,53 Z"
   id="path2"
   inkscape:connector-curvature="0"
   style="fill:#0d4c75" />
		</g><g
   style="fill:none;stroke:#eeeeee;stroke-width:0.40000001;stroke-linecap:round;stroke-linejoin:round;stroke-miterlimit:10"
   id="g100"
   stroke-miterlimit="10"
   class="labels"
   transform="translate(0.2835)">
				<g
   id="g64"
   transform="translate(8.5,0.3)"
   class="left-labels">
					<g
   id="g34"
   class="RST">
						<path
   inkscape:connector-curvature="0"
   id="path32"
   d="M 2.2,6.541 H 0 m 0,0 V 5.376 m 0,0 0.324,-0.324 m 0,0.001 H 1.1 m 0,0 0.388,0.324 m 0,-10e-4 v 1.165 m 0,-0.776 L 2.2,5.053 M 0.324,2.724 0,3.112 m 0,0 v 0.776 m 0,0 0.324,0.388 m 0,0 h 0.388 m 0,0 L 1.1,3.888 m 0,0 V 3.112 m 0,0 0.388,-0.388 m 0,0 h 0.324 m 0,0 0.388,0.388 m 0,0 v 0.776 m 0,0 -0.388,0.388 M 2.2,1.235 H 0 M 0,1.947 V 0.459"
   class="top90" />
					</g>
					<g
   id="g38"
   transform="translate(0,7.2)"
   class="A0">
						<path
   inkscape:connector-curvature="0"
   id="path36"
   d="M 0,4.6 V 3.112 m 0,0 L 0.776,2.4 m 0,0 0.776,0.712 m 10e-4,0 V 4.6 M 0,3.5 H 1.553 M 2.329,4.212 V 2.724 m 0,0 L 2.718,2.4 m 0,0 H 3.43 m -0.001,0 0.388,0.324 m 10e-4,0 v 1.488 m 0,0 L 3.429,4.6 m 0,0 H 2.718 m 0,0 -0.389,-0.388 m 0,0 1.488,-1.488"
   class="left" />
					</g>
					<g
   id="g42"
   transform="translate(0,14.4)"
   class="D0">
						<path
   inkscape:connector-curvature="0"
   id="path40"
   d="m 0,2.4 v 2.2 m 0,0 h 1.165 m 0,0 0.388,-0.388 m 0,0 V 2.724 m 0,0 L 1.165,2.4 m 0,0 H 0 M 2.329,4.212 V 2.724 m 0,0 L 2.718,2.4 m 0,0 H 3.43 m -0.001,0 0.388,0.324 m 10e-4,0 v 1.488 m 0,0 L 3.429,4.6 m 0,0 H 2.718 m 0,0 -0.389,-0.388 m 0,0 1.488,-1.488"
   class="left" />
					</g>
					<g
   id="g46"
   transform="translate(0,21.6)"
   class="D5">
						<path
   inkscape:connector-curvature="0"
   id="path44"
   d="m 0,2.4 v 2.2 m 0,0 h 1.165 m 0,0 0.388,-0.388 m 0,0 V 2.724 m 0,0 L 1.165,2.4 m 0,0 H 0 m 3.818,0 H 2.329 m 0,0 v 1.1 m 0,0 0.712,-0.388 m 0,0 h 0.388 m 0,0 0.389,0.388 m 0,0 v 0.712 m 0,0 L 3.429,4.6 m 0,0 H 2.653 m 0,0 -0.324,-0.388"
   class="left" />
					</g>
					<g
   id="g50"
   transform="translate(0,28.8)"
   class="D6">
						<path
   inkscape:connector-curvature="0"
   id="path48"
   d="m 0,2.4 v 2.2 m 0,0 h 1.165 m 0,0 0.388,-0.388 m 0,0 V 2.724 m 0,0 L 1.165,2.4 m 0,0 H 0 m 3.818,0 -0.777,0.324 m 0,0 L 2.329,3.5 m 0,0 V 4.212 M 2.653,4.6 2.329,4.212 M 2.653,4.6 h 0.776 m 0,0 0.388,-0.388 m 10e-4,0 V 3.888 m 0,0 L 3.429,3.5 m 0,0 h -1.1"
   class="left" />
					</g>
					<g
   id="g54"
   transform="translate(0,36)"
   class="D7">
						<path
   inkscape:connector-curvature="0"
   id="path52"
   d="m 0,2.4 v 2.2 m 0,0 h 1.165 m 0,0 0.388,-0.388 m 0,0 V 2.724 m 0,0 L 1.165,2.4 m 0,0 H 0 m 2.329,0 h 1.488 m 10e-4,0 v 0.324 m 0,0 -1.489,1.488 m 0,0 V 4.6"
   class="left" />
					</g>
					<g
   id="g58"
   transform="translate(0,43.2)"
   class="D8">
						<path
   inkscape:connector-curvature="0"
   id="path56"
   d="m 0,2.4 v 2.2 m 0,0 h 1.165 m 0,0 0.324,-0.388 m -0.001,0 V 2.724 m 0,0 L 1.165,2.4 m 0,0 H 0 M 2.329,2.724 2.653,2.4 m 0,0 h 0.776 m 0,0 0.388,0.324 m 10e-4,0 v 0.388 m 0,0 L 3.429,3.5 m 0,0 0.388,0.388 m 10e-4,0 v 0.324 m 0,0 L 3.429,4.6 m 0,0 H 2.653 m 0,0 -0.324,-0.388 m 0,0 V 3.888 m 0,0 L 2.653,3.5 m 0,0 -0.324,-0.388 m 0,0 V 2.724 M 2.653,3.5 h 0.776"
   class="left" />
					</g>
					<g
   id="g62"
   transform="translate(0,50.4)"
   class="3V3">
						<path
   inkscape:connector-curvature="0"
   id="path60"
   d="M 0.324,6.541 0,6.153 m 0,0 V 5.377 M 0,5.376 0.324,5.052 m 0,0.001 h 0.388 m 0,0 0.388,0.323 m 0,0 v 0.388 m 0,-0.388 0.388,-0.324 m 0,0.001 h 0.324 m 0,0 0.388,0.323 m 0,0 v 0.776 m 0,10e-4 -0.388,0.388 M 0,4.212 h 1.488 m 0,0 L 2.2,3.5 m 0,0 -0.712,-0.776 m 0,0 H 0 M 0.324,1.947 0,1.559 m 0,0 V 0.847 m 0,0 0.324,-0.388 m 0,0 h 0.388 m 0,0 0.388,0.388 m 0,0 v 0.324 m 0,-0.324 0.388,-0.388 m 0,0 h 0.324 m 0,0 0.388,0.388 m 0,0 V 1.559 M 1.812,1.947 2.2,1.559"
   class="top90" />
					</g>
				</g>
				<g
   id="g98"
   transform="translate(56.7,0.3)"
   class="right-labels">
					<g
   id="g68"
   class="TX">
						<path
   inkscape:connector-curvature="0"
   id="path66"
   d="M 3.959,4.6 V 2.4 m -0.712,0 H 4.735 M 7,4.6 5.512,2.4 M 7,2.4 5.512,4.6"
   class="right" />
					</g>
					<g
   id="g72"
   transform="translate(0,7.2)"
   class="RX">
						<path
   inkscape:connector-curvature="0"
   id="path70"
   d="M 3.247,4.6 V 2.4 m 0,0 h 1.1 m 0,0 0.388,0.324 m 0,0 V 3.5 m 0,0 -0.388,0.388 m 0,0 h -1.1 m 0.712,0 L 4.735,4.6 M 7,4.6 5.512,2.4 M 7,2.4 5.512,4.6"
   class="right" />
					</g>
					<g
   id="g76"
   transform="translate(0,14.4)"
   class="D1">
						<path
   inkscape:connector-curvature="0"
   id="path74"
   d="m 3.247,2.4 v 2.2 m 0,0 h 1.1 m 0,0 0.388,-0.388 m 0,0 V 2.724 m 0,0 L 4.347,2.4 m 0,0 h -1.1 M 5.512,3.112 6.224,2.4 m 0,0 v 2.2 m -0.712,0 H 7"
   class="right" />
					</g>
					<g
   id="g80"
   transform="translate(0,21.6)"
   class="D2">
						<path
   inkscape:connector-curvature="0"
   id="path78"
   d="m 3.247,2.4 v 2.2 m 0,0 h 1.1 m 0,0 0.388,-0.388 m 0,0 V 2.724 m 0,0 L 4.347,2.4 m 0,0 h -1.1 M 7,4.6 H 5.512 m 0,0 L 7,3.112 m 0,0 V 2.724 m 0,0 L 6.612,2.4 m 0,0 H 5.9 m 0,0 -0.388,0.324"
   class="right" />
					</g>
					<g
   id="g84"
   transform="translate(0,28.8)"
   class="D3">
						<path
   inkscape:connector-curvature="0"
   id="path82"
   d="m 3.182,2.4 v 2.2 m 0,0 h 1.165 m 0,0 0.388,-0.388 m 0,0 V 2.724 m 0,0 L 4.347,2.4 m 0,0 H 3.182 M 5.512,2.724 5.9,2.4 m 0,0 h 0.712 m 0,0 L 7,2.724 m 0,0 v 0.388 m 0,0 L 6.612,3.5 m 0,0 H 6.224 M 6.612,3.5 7,3.888 m 0,0 v 0.324 m 0,0 L 6.612,4.6 m 0,0 H 5.9 m 0,0 -0.388,-0.388"
   class="right" />
					</g>
					<g
   id="g88"
   transform="translate(0,36)"
   class="D4">
						<path
   inkscape:connector-curvature="0"
   id="path86"
   d="m 3.182,2.4 v 2.2 m 0,0 h 1.165 m 0,0 0.388,-0.388 m 0,0 V 2.724 m 0,0 L 4.347,2.4 m 0,0 H 3.182 m 3.43,2.2 V 2.4 m 0,0 -1.1,1.1 m 0,0 H 7"
   class="right" />
					</g>
					<g
   id="g92"
   transform="translate(0,43.2)"
   class="GND">
						<path
   inkscape:connector-curvature="0"
   id="path90"
   d="M 4.8,5.441 5.124,5.053 M 4.8,5.441 V 6.153 M 5.124,6.541 4.8,6.153 M 5.124,6.541 H 6.612 M 7,6.153 6.612,6.541 M 7,6.153 V 5.441 m 0,0 -0.388,-0.388 m 0,0 H 5.9 m 0,0 V 5.765 M 7,4.276 H 4.8 m 0,0 L 7,2.724 m 0,0 H 4.8 m 0,-0.777 H 7 m 0,0 v -1.1 m 0,0 -0.388,-0.388 m 0,0 H 5.124 m 0,0 L 4.8,0.847 m 0,0 v 1.1"
   class="bot90" />
					</g>
					<g
   id="g96"
   transform="translate(0,50.4)"
   class="5V">
						<path
   inkscape:connector-curvature="0"
   id="path94"
   d="M 4.735,2.4 H 3.182 m 0,0 v 1.1 m 0,0 0.776,-0.388 m 10e-4,0 h 0.388 m 0,0 0.388,0.388 m 0,0 v 0.712 m 0,0 L 4.347,4.6 m 0,0 H 3.571 m 0,0 L 3.182,4.212 M 5.512,2.4 v 1.488 m 0,0 0.712,0.712 m 0,0 L 7,3.888 m 0,0 V 2.4"
   class="right" />
					</g>
				</g>
			</g><g
   id="g168"
   transform="translate(62.7835,59.5)"
   class="led-1 blue 1608-0603">
				<rect
   style="fill:#9a916c"
   id="rect156"
   height="2.7"
   width="2"
   y="-0.21600001"
   x="3.0350001"
   class="pad-right" />
				<rect
   style="fill:#9a916c"
   id="rect158"
   height="2.7"
   width="2"
   y="-0.21600001"
   x="-0.5"
   class="pad-left" />
				<g
   style="opacity:0.5;fill:#000000"
   id="g162"
   transform="translate(0.1,0.1)"
   class="3d">
					<path
   inkscape:connector-curvature="0"
   id="path160"
   d="m 4.035,1.134 c 0,-0.316 0.213,-0.572 0.5,-0.66 V 0 H 0 V 0.474 C 0.287,0.561 0.5,0.818 0.5,1.134 0.5,1.45 0.287,1.706 0,1.794 V 2.268 H 4.535 V 1.794 C 4.248,1.706 4.035,1.45 4.035,1.134 Z" />
				</g>
				<path
   style="fill:#bbbbbb"
   inkscape:connector-curvature="0"
   id="path164"
   d="m 4.035,1.134 c 0,-0.316 0.213,-0.572 0.5,-0.66 V 0 H 0 V 0.474 C 0.287,0.561 0.5,0.818 0.5,1.134 0.5,1.45 0.287,1.706 0,1.794 V 2.268 H 4.535 V 1.794 C 4.248,1.706 4.035,1.45 4.035,1.134 Z"
   class="legs" />
				<rect
   style="fill:#0000ff"
   id="rect166"
   height="2.2679999"
   width="2.8"
   y="0"
   x="0.86699998"
   class="color blue" />
			</g><g
   id="g261"
   class="pads"
   transform="translate(0.2835)">
				<g
   id="g249"
   transform="translate(0,0.322)"
   class="pads-left">
					<circle
   style="fill:none;stroke:#9a916c;stroke-width:1.5"
   r="2.05"
   cy="3.5999999"
   cx="3.5999999"
   class="pad-rst"
   id="connector0pin" />
					<circle
   style="fill:none;stroke:#9a916c;stroke-width:1.5"
   r="2.05"
   cy="10.8"
   cx="3.5999999"
   class="pad-a0"
   id="connector1pin" />
					<circle
   style="fill:none;stroke:#9a916c;stroke-width:1.5"
   r="2.05"
   cy="18"
   cx="3.5999999"
   class="pad-d0"
   id="connector2pin" />
					<circle
   style="fill:none;stroke:#9a916c;stroke-width:1.5"
   r="2.05"
   cy="25.200001"
   cx="3.5999999"
   class="pad-d5"
   id="connector3pin" />
					<circle
   style="fill:none;stroke:#9a916c;stroke-width:1.5"
   r="2.05"
   cy="32.400002"
   cx="3.5999999"
   class="pad-d6"
   id="connector4pin" />
					<circle
   style="fill:none;stroke:#9a916c;stroke-width:1.5"
   r="2.05"
   cy="39.599998"
   cx="3.5999999"
   class="pad-d7"
   id="connector5pin" />
					<circle
   style="fill:none;stroke:#9a916c;stroke-width:1.5"
   r="2.05"
   cy="46.799999"
   cx="3.5999999"
   class="pad-d8"
   id="connector6pin" />
					<circle
   style="fill:none;stroke:#9a916c;stroke-width:1.5"
   r="2.05"
   cy="54"
   cx="3.5999999"
   class="pad-3v3"
   id="connector7pin" />
				</g>
				<g
   id="g259"
   transform="translate(64.8,0.322)"
   class="pads-right">
					<circle
   style="fill:none;stroke:#9a916c;stroke-width:1.5"
   r="2.05"
   cy="54"
   cx="3.5999999"
   class="pad-5v"
   id="connector8pin" />
					<circle
   style="fill:none;stroke:#9a916c;stroke-width:1.5"
   r="2.05"
   cy="46.799999"
   cx="3.5999999"
   class="pad-g"
   id="connector9pin" />
					<circle
   style="fill:none;stroke:#9a916c;stroke-width:1.5"
   r="2.05"
   cy="39.599998"
   cx="3.5999999"
   class="pad-d4"
   id="connector10pin" />
					<circle
   style="fill:none;stroke:#9a916c;stroke-width:1.5"
   r="2.05"
   cy="32.400002"
   cx="3.5999999"
   class="pad-d3"
   id="connector11pin" />
					<circle
   style="fill:none;stroke:#9a916c;stroke-width:1.5"
   r="2.05"
   cy="25.200001"
   cx="3.5999999"
   class="pad-d2"
   id="connector12pin" />
					<circle
   style="fill:none;stroke:#9a916c;stroke-width:1.5"
   r="2.05"
   cy="18"
   cx="3.5999999"
   class="pad-d1"
   id="connector13pin" />
					<circle
   style="fill:none;stroke:#9a916c;stroke-width:1.5"
   r="2.05"
   cy="10.8"
   cx="3.5999999"
   class="pad-rx"
   id="connector14pin" />
					<circle
   style="fill:none;stroke:#9a916c;stroke-width:1.5"
   r="2.05"
   cy="3.5999999"
   cx="3.5999999"
   class="pad-tx"
   id="connector15pin" />
				</g>
			</g>
</svg>